<?xml version="1.0" standalone="no"?>
<!DOCTYPE svg PUBLIC "-//W3C//DTD SVG 20010904//EN"
 "http://www.w3.org/TR/2001/REC-SVG-20010904/DTD/svg10.dtd">
<svg version="1.0" xmlns="http://www.w3.org/2000/svg"
 width="512.000000pt" height="512.000000pt" viewBox="0 0 512.000000 512.000000"
 preserveAspectRatio="xMidYMid meet">

<g transform="translate(0.000000,512.000000) scale(0.100000,-0.100000)"
fill="#000000" stroke="none">
<path d="M4415 4970 l-580 -149 -1407 -1 c-1069 0 -1413 -3 -1433 -12 -48 -22
-55 -51 -55 -243 l0 -175 -412 0 c-252 0 -427 -4 -450 -10 -20 -6 -46 -22 -58
-37 -20 -26 -20 -31 -18 -865 l3 -840 28 -24 28 -24 440 0 439 0 0 -360 0
-360 -319 0 -318 0 -27 -26 -26 -27 0 -307 0 -307 26 -27 27 -26 318 0 319 0
0 -385 c0 -419 1 -429 55 -453 20 -9 363 -12 1430 -12 l1404 0 589 -150 c324
-82 597 -150 606 -150 29 0 72 28 84 55 9 20 12 604 12 2505 0 1901 -3 2485
-12 2505 -13 30 -56 55 -90 54 -13 0 -284 -68 -603 -149z m505 -2410 l0 -2330
-27 6 c-16 4 -235 60 -488 124 l-460 117 -5 834 c-5 900 -3 864 -57 888 -42
19 -73 13 -109 -23 l-34 -34 0 -821 0 -821 -1300 0 -1300 0 0 325 0 325 223
-2 222 -3 3 -90 c3 -81 5 -92 29 -117 52 -55 68 -49 436 164 183 105 388 223
455 262 124 71 152 98 152 146 0 48 -28 75 -152 146 -67 39 -272 157 -455 262
-368 213 -384 219 -436 164 -24 -25 -26 -36 -29 -117 l-3 -90 -223 -3 -222 -2
0 360 0 360 1149 0 1150 0 28 24 28 24 3 840 c2 834 2 839 -18 865 -12 15 -38
31 -58 37 -24 6 -421 10 -1159 10 l-1123 0 0 115 0 115 1300 0 1300 0 0 -815
c0 -886 -2 -857 55 -883 14 -7 35 -12 46 -12 28 0 75 26 85 47 5 10 11 393 14
852 l5 834 480 123 c264 67 483 123 488 123 4 1 7 -1048 7 -2329z m-1620 930
l0 -700 -1550 0 -1550 0 0 700 0 700 1550 0 1550 0 0 -700z m-1012 -1938 c34
-20 62 -39 62 -42 0 -3 -125 -78 -277 -166 l-278 -160 -6 48 c-9 64 -31 95
-76 107 -25 7 -256 11 -650 11 l-613 0 0 160 0 160 618 1 c450 0 626 3 652 12
41 14 70 63 70 119 l0 37 218 -126 c119 -69 245 -141 280 -161z"/>
<path d="M3774 2626 c-37 -37 -43 -70 -20 -115 15 -28 53 -51 86 -51 51 0 100
49 100 99 0 34 -23 72 -51 87 -45 23 -78 17 -115 -20z"/>
<path d="M451 3966 c-50 -28 -50 -32 -51 -479 0 -446 2 -461 49 -487 12 -6
102 -10 221 -10 l202 0 29 29 c21 22 29 39 29 66 0 85 -40 105 -210 105 l-120
0 0 94 0 94 119 4 c102 3 124 6 147 24 52 38 56 103 9 150 -23 23 -30 24 -150
24 l-125 0 0 99 0 99 141 4 c140 3 141 3 165 31 33 38 33 96 0 134 l-24 28
-204 2 c-156 2 -209 0 -227 -11z"/>
<path d="M1167 3955 c-29 -29 -39 -69 -26 -102 5 -13 55 -90 112 -171 57 -81
107 -153 111 -160 5 -8 -42 -82 -125 -200 -72 -103 -136 -199 -141 -214 -15
-42 17 -99 63 -116 64 -24 89 -3 214 175 61 86 115 157 120 157 6 0 54 -63
108 -140 117 -166 138 -190 174 -197 69 -13 137 59 115 122 -5 15 -69 111
-141 214 -80 113 -129 192 -125 199 4 6 56 81 115 166 60 85 111 163 114 173
9 29 -13 85 -40 103 -31 20 -84 21 -112 1 -12 -9 -63 -74 -113 -145 -50 -72
-93 -130 -95 -130 -2 0 -43 57 -91 126 -48 69 -99 134 -112 145 -36 28 -93 25
-125 -6z"/>
<path d="M2089 3951 l-29 -29 0 -435 0 -435 25 -30 c32 -38 65 -46 109 -28 66
27 66 29 66 484 0 266 -4 420 -11 440 -23 66 -109 84 -160 33z"/>
<path d="M2489 3951 c-40 -40 -40 -89 0 -133 28 -31 33 -33 110 -36 l81 -4 0
-363 0 -363 25 -30 c32 -38 65 -46 109 -28 65 27 66 34 66 429 l0 355 74 4
c56 2 82 9 102 24 52 38 56 103 9 150 l-24 24 -261 0 -262 0 -29 -29z"/>
</g>
</svg>
